<?xml version="1.0" standalone="no"?>
<!DOCTYPE svg PUBLIC "-//W3C//DTD SVG 20010904//EN"
 "http://www.w3.org/TR/2001/REC-SVG-20010904/DTD/svg10.dtd">
<svg version="1.0" xmlns="http://www.w3.org/2000/svg"
 width="700.000000pt" height="700.000000pt" viewBox="0 0 700.000000 700.000000"
 preserveAspectRatio="xMidYMid meet">
<metadata>
Created by potrace 1.14, written by Peter Selinger 2001-2017
</metadata>
<g transform="translate(0.000000,700.000000) scale(0.100000,-0.100000)"
fill="#000000" stroke="none">
<path d="M4085 6908 c-120 -15 -247 -71 -345 -153 -81 -67 -126 -129 -235
-317 -10 -18 -208 -359 -235 -407 -9 -14 -41 -71 -73 -126 -32 -55 -62 -107
-67 -115 -5 -8 -68 -116 -139 -240 -71 -124 -137 -239 -147 -257 -17 -29 -132
-229 -160 -278 -6 -11 -43 -74 -81 -140 -38 -66 -114 -196 -168 -290 -54 -93
-106 -183 -116 -200 -11 -16 -22 -37 -26 -45 -4 -8 -26 -46 -48 -85 -23 -38
-122 -209 -220 -380 -98 -170 -218 -377 -266 -460 -48 -82 -96 -166 -107 -185
-38 -69 -435 -756 -453 -785 -10 -16 -31 -52 -46 -80 -15 -27 -32 -58 -38 -67
-49 -83 -225 -388 -242 -421 -49 -93 -75 -197 -79 -312 -4 -129 9 -194 60
-302 39 -82 138 -190 208 -228 30 -16 259 -147 451 -259 297 -172 1090 -627
1112 -639 97 -49 249 -62 367 -31 182 47 350 182 448 359 12 22 74 129 137
238 63 110 122 213 132 230 10 18 57 99 105 180 47 82 86 151 86 154 0 3 14
25 30 50 17 24 30 46 30 48 0 3 186 328 209 365 5 8 47 80 93 160 46 79 95
165 109 190 75 129 267 461 434 750 103 179 197 341 208 360 20 37 171 298
746 1293 393 680 390 675 421 772 29 90 36 272 14 355 -51 194 -148 300 -391
432 -17 9 -159 91 -315 181 -1065 617 -1118 646 -1188 667 -77 23 -134 28
-215 18z m247 -337 c112 -49 162 -184 108 -296 -66 -136 -247 -167 -353 -59
-43 43 -60 83 -63 146 -8 162 157 275 308 209z m-307 -542 c167 -79 167 -318
0 -395 -214 -100 -410 151 -264 337 60 76 173 101 264 58z m1694 -255 c116
-74 148 -195 82 -314 -19 -34 -48 -58 -100 -82 -144 -67 -314 51 -306 213 5
94 61 163 165 203 26 10 133 -4 159 -20z m-1014 -136 c112 -58 161 -177 115
-283 -26 -60 -53 -91 -103 -117 -145 -74 -317 32 -319 197 -2 128 112 231 242
218 25 -3 54 -10 65 -15z m-950 -49 c78 -31 136 -119 136 -205 0 -217 -272
-301 -400 -123 -124 171 65 406 264 328z m1609 -340 c126 -31 197 -190 138
-305 -59 -115 -182 -156 -298 -99 -55 27 -113 97 -115 139 -1 12 -3 37 -4 56
-2 37 20 102 45 135 55 72 139 98 234 74z m-909 -66 c111 -53 154 -176 101
-290 -36 -77 -102 -119 -200 -128 -34 -2 -117 32 -149 62 -88 83 -91 228 -5
313 71 72 161 87 253 43z m-940 -63 c156 -91 151 -312 -10 -390 -149 -72 -315
35 -315 203 0 160 186 268 325 187z m1625 -331 c78 -39 123 -109 123 -192 0
-126 -85 -218 -205 -223 -72 -3 -126 17 -171 65 -136 144 -34 376 163 370 30
-1 71 -10 90 -20z m-954 -58 c142 -64 174 -242 65 -351 -88 -87 -207 -93 -300
-14 -122 105 -87 314 63 371 47 18 126 15 172 -6z m685 -394 c108 -47 159
-181 111 -290 -38 -85 -105 -128 -201 -130 -120 -1 -210 84 -216 205 -4 77 20
134 74 180 65 54 156 68 232 35z m-1251 -27 c500 -131 838 -577 825 -1088 -16
-609 -522 -1082 -1132 -1058 -65 3 -127 7 -139 10 -210 47 -355 112 -496 225
-143 113 -270 281 -328 432 -7 19 -19 50 -26 69 -33 86 -56 226 -56 345 0 66
3 136 6 155 34 190 84 318 180 465 51 77 214 240 289 289 128 83 276 144 419
171 111 21 349 13 458 -15z m-1787 -1639 c200 -115 250 -147 265 -169 55 -84
-35 -232 -132 -219 -43 6 -312 162 -332 192 -33 51 -23 119 26 179 38 47 108
54 173 17z m618 -357 c179 -104 191 -115 191 -179 0 -41 -35 -110 -66 -130
-56 -37 -82 -36 -154 2 -164 88 -249 141 -266 168 -38 58 6 180 75 209 47 20
89 6 220 -70z m-513 -260 c148 -84 176 -108 186 -156 8 -41 -31 -128 -70 -154
-58 -39 -89 -32 -249 60 -11 7 -45 26 -76 44 -73 42 -100 72 -106 119 -6 48
30 119 76 150 49 33 86 24 239 -63z m1037 -43 c77 -44 151 -91 165 -106 73
-78 -21 -247 -126 -229 -42 7 -312 164 -330 192 -26 40 -21 103 12 153 62 93
100 91 279 -10z m-1589 -235 c41 -25 77 -46 79 -46 11 0 112 -66 127 -83 29
-32 32 -90 8 -138 -28 -55 -43 -69 -88 -84 -48 -17 -67 -9 -233 88 -147 86
-170 110 -163 175 11 93 92 162 167 141 15 -4 61 -28 103 -53z m2131 -78 c154
-88 175 -109 175 -174 0 -44 -45 -120 -82 -139 -52 -27 -81 -19 -229 66 -158
91 -191 122 -191 177 1 81 80 166 147 157 19 -2 100 -42 180 -87z m-1556 -253
c147 -85 161 -96 176 -140 23 -66 -42 -177 -111 -190 -41 -8 -61 0 -208 85
-161 93 -173 106 -173 173 0 91 68 162 146 154 20 -3 92 -38 170 -82z m1063
-18 c77 -45 148 -94 159 -109 51 -68 -6 -197 -95 -217 -44 -10 -53 -7 -219 90
-102 59 -144 89 -155 111 -39 75 24 197 107 210 42 6 61 -2 203 -85z m-531
-290 c143 -83 177 -115 177 -167 -1 -39 -34 -103 -69 -133 -55 -46 -86 -39
-251 57 -80 46 -154 95 -164 110 -29 38 -26 101 8 150 66 98 104 96 299 -17z
m519 -301 c78 -44 150 -92 159 -106 29 -41 30 -84 2 -138 -54 -104 -123 -109
-272 -17 -9 6 -53 31 -98 58 -87 50 -113 81 -113 135 0 56 62 140 112 153 39
9 64 -1 210 -85z"/>
<path d="M3180 3894 c-408 -118 -605 -558 -421 -938 60 -123 186 -249 310
-309 110 -54 284 -76 409 -52 280 54 501 284 539 560 39 294 -104 562 -373
698 -130 66 -319 82 -464 41z"/>
</g>
</svg>
