<?xml version="1.0" standalone="no"?>
<!DOCTYPE svg PUBLIC "-//W3C//DTD SVG 20010904//EN"
 "http://www.w3.org/TR/2001/REC-SVG-20010904/DTD/svg10.dtd">
<svg version="1.0" xmlns="http://www.w3.org/2000/svg"
 width="700.000000pt" height="700.000000pt" viewBox="0 0 700.000000 700.000000"
 preserveAspectRatio="xMidYMid meet">
<metadata>
Created by potrace 1.14, written by Peter Selinger 2001-2017
</metadata>
<g transform="translate(0.000000,700.000000) scale(0.100000,-0.100000)"
fill="#000000" stroke="none">
<path d="M3941 6294 c-94 -20 -196 -74 -268 -142 -68 -67 -79 -82 -206 -302
-49 -85 -113 -195 -142 -245 -29 -49 -64 -110 -77 -135 -14 -25 -65 -112 -113
-195 -48 -82 -97 -166 -108 -185 -11 -19 -61 -107 -112 -195 -51 -88 -124
-216 -164 -285 -39 -69 -75 -132 -80 -140 -21 -33 -206 -355 -210 -365 -2 -5
-12 -21 -21 -35 -9 -14 -28 -45 -42 -70 -14 -25 -93 -162 -175 -305 -255 -440
-445 -768 -466 -805 -10 -19 -95 -165 -187 -325 -237 -411 -246 -427 -264
-482 -24 -73 -28 -91 -31 -173 -7 -144 40 -267 137 -363 60 -59 224 -158 807
-488 25 -14 118 -68 206 -119 286 -166 319 -185 365 -207 131 -61 311 -42 449
47 85 55 147 122 210 227 29 48 57 95 62 103 7 12 156 270 239 415 20 35 273
472 306 530 13 22 28 49 34 60 6 11 23 41 38 66 15 25 73 127 130 225 57 98
107 186 112 194 5 8 32 53 59 100 27 47 78 136 115 198 36 63 66 115 66 118 0
2 17 32 38 66 21 35 41 70 45 78 4 8 16 30 27 48 18 29 318 549 808 1396 63
110 128 227 143 261 62 132 72 291 26 418 -30 82 -65 135 -128 190 -36 33
-509 313 -857 508 -26 15 -141 81 -257 148 -115 67 -230 131 -255 142 -74 33
-168 41 -259 23z m239 -268 c64 -25 110 -95 110 -166 0 -168 -206 -244 -317
-117 -75 86 -48 221 55 277 40 21 108 24 152 6z m-239 -451 c75 -39 112 -136
83 -218 -59 -168 -294 -159 -345 13 -44 145 124 276 262 205z m1393 -215 c101
-65 113 -205 24 -287 -73 -68 -206 -55 -265 25 -56 75 -44 181 27 244 45 40
62 46 129 45 29 -1 57 -10 85 -27z m-818 -122 c54 -37 71 -64 80 -130 19 -136
-134 -243 -257 -179 -51 27 -74 53 -92 106 -40 117 48 235 174 235 36 0 58 -7
95 -32z m-791 -31 c21 -12 52 -41 68 -63 80 -114 -12 -278 -154 -277 -58 1
-100 23 -142 75 -39 48 -46 131 -16 189 45 89 159 124 244 76z m1315 -272
c102 -32 151 -155 101 -253 -62 -122 -229 -133 -308 -20 -38 56 -40 147 -3
200 47 70 130 99 210 73z m-754 -51 c109 -52 133 -202 46 -288 -71 -72 -172
-74 -247 -5 -96 89 -74 238 45 293 55 25 102 25 156 0z m-765 -59 c75 -49 105
-142 70 -221 -74 -166 -302 -143 -342 36 -34 151 142 270 272 185z m1348 -278
c53 -35 84 -101 79 -167 -11 -126 -148 -202 -259 -144 -40 20 -52 31 -78 75
-39 63 -21 170 37 222 55 50 157 57 221 14z m-803 -36 c175 -80 115 -339 -80
-343 -96 -2 -176 78 -176 175 0 62 22 109 69 146 57 45 120 52 187 22z m577
-334 c101 -56 119 -206 35 -284 -28 -26 -89 -53 -120 -53 -103 0 -188 87 -188
190 1 41 35 105 71 133 65 48 132 53 202 14z m-1101 -1 c190 -37 338 -114 474
-250 85 -85 123 -140 175 -251 63 -134 81 -218 82 -375 1 -145 -12 -215 -61
-340 -104 -264 -335 -462 -622 -536 -112 -28 -327 -26 -434 4 -679 194 -896
1015 -400 1508 201 199 509 293 786 240z m-1326 -1407 c139 -81 162 -110 140
-177 -18 -52 -62 -92 -102 -92 -50 0 -267 124 -290 166 -24 44 -12 98 32 142
30 30 39 34 73 29 21 -2 86 -33 147 -68z m433 -251 c96 -55 126 -78 136 -102
34 -80 -42 -179 -125 -163 -16 4 -71 31 -121 62 -51 30 -95 55 -99 55 -15 0
-50 48 -56 77 -7 36 24 103 58 127 41 29 77 19 207 -56z m-480 -179 c113 -62
178 -105 190 -128 36 -66 -28 -171 -102 -171 -37 0 -263 125 -284 157 -22 33
-18 85 9 126 44 69 83 72 187 16z m892 -59 c55 -33 104 -60 108 -60 14 0 50
-45 56 -72 7 -29 -21 -104 -48 -126 -9 -8 -33 -16 -54 -18 -33 -5 -54 4 -161
66 -151 88 -173 120 -136 193 50 96 96 99 235 17z m-1263 -217 c122 -71 148
-92 154 -127 12 -61 -51 -146 -108 -146 -46 0 -266 124 -289 163 -21 36 -15
85 16 128 47 67 86 64 227 -18z m1707 -39 c123 -70 155 -100 155 -146 0 -33
-41 -102 -69 -118 -45 -24 -71 -14 -248 92 -63 38 -84 56 -89 76 -3 15 -7 32
-9 38 -5 16 20 67 48 97 42 44 79 38 212 -39z m-1266 -216 c155 -90 174 -122
121 -211 -26 -43 -60 -61 -102 -54 -30 4 -183 87 -246 132 -54 39 -53 108 2
168 50 55 76 51 225 -35z m771 44 c126 -66 227 -131 235 -150 16 -39 14 -64
-5 -102 -39 -77 -97 -91 -178 -43 -82 48 -106 62 -138 78 -44 22 -72 55 -78
90 -8 43 29 114 68 131 42 18 56 17 96 -4z m-349 -287 c158 -90 180 -123 139
-206 -24 -46 -40 -59 -84 -66 -31 -5 -52 4 -157 63 -125 71 -144 88 -153 138
-6 34 23 97 56 120 41 29 78 19 199 -49z m427 -246 c127 -73 150 -92 157 -133
7 -37 -14 -93 -45 -121 -42 -38 -92 -27 -221 49 -67 39 -123 80 -132 95 -26
45 -6 110 47 153 38 32 80 22 194 -43z"/>
<path d="M3285 3835 c-275 -53 -466 -295 -449 -570 16 -285 254 -515 533 -516
265 -1 478 162 545 417 22 85 15 231 -14 309 -98 258 -357 409 -615 360z"/>
</g>
</svg>
