<svg width="512" height="512" version="1.1" viewBox="0 0 135.47 135.47" xmlns="http://www.w3.org/2000/svg"><title>Universal Remote</title><path d="m85.445 3.0403c-5.45-3.1466-12.707-0.66909-16.308 5.5679l-51.905 89.903c-3.6009 6.237-2.1178 13.761 3.3322 16.907l29.459 17.008c5.45 3.1466 12.707 0.66911 16.308-5.5679l51.905-89.903c3.6009-6.237 2.1178-13.761-3.3322-16.907l-19.639-11.339zm-1.1975 5.4222a4.2883 4.2883 0 0 1 1.5701 5.858 4.2883 4.2883 0 0 1-5.8582 1.5693 4.2883 4.2883 0 0 1-1.5696-5.8577 4.2883 4.2883 0 0 1 5.8577-1.5696zm26.559 15.334a4.2883 4.2883 0 0 1 1.5696 5.8577 4.2883 4.2883 0 0 1-5.8577 1.5696 4.2883 4.2883 0 0 1-1.5701-5.858 4.2883 4.2883 0 0 1 5.8582-1.5693zm-32.591-4.887a4.2883 4.2883 0 0 1 1.5698 5.8585 4.2883 4.2883 0 0 1-5.8582 1.5693 4.2883 4.2883 0 0 1-1.5696-5.8577 4.2883 4.2883 0 0 1 5.858-1.5701zm13.28 7.6671a4.2883 4.2883 0 0 1 1.5693 5.8582 4.2883 4.2883 0 0 1-5.8577 1.5696 4.2883 4.2883 0 0 1-1.5696-5.8577 4.2883 4.2883 0 0 1 5.858-1.5701zm13.28 7.6671a4.2883 4.2883 0 0 1 1.5693 5.8582 4.2883 4.2883 0 0 1-5.8577 1.5696 4.2883 4.2883 0 0 1-1.5701-5.858 4.2883 4.2883 0 0 1 5.8585-1.5698zm-31.561-6.672a4.2883 4.2883 0 0 1 1.5698 5.8585 4.2883 4.2883 0 0 1-5.8582 1.5693 4.2883 4.2883 0 0 1-1.5696-5.8577 4.2883 4.2883 0 0 1 5.858-1.5701zm13.28 7.6671a4.2883 4.2883 0 0 1 1.5693 5.8582 4.2883 4.2883 0 0 1-5.8577 1.5696 4.2883 4.2883 0 0 1-1.5696-5.8577 4.2883 4.2883 0 0 1 5.858-1.5701zm13.28 7.6671a4.2883 4.2883 0 0 1 1.5693 5.8582 4.2883 4.2883 0 0 1-5.8577 1.5696 4.2883 4.2883 0 0 1-1.5701-5.858 4.2883 4.2883 0 0 1 5.8585-1.5698zm-31.655-6.5088a4.2883 4.2883 0 0 1 1.5701 5.858 4.2883 4.2883 0 0 1-5.8582 1.5693 4.2883 4.2883 0 0 1-1.5696-5.8577 4.2883 4.2883 0 0 1 5.8577-1.5696zm13.28 7.6671a4.2883 4.2883 0 0 1 1.5696 5.8577 4.2883 4.2883 0 0 1-5.8577 1.5696 4.2883 4.2883 0 0 1-1.5696-5.8577 4.2883 4.2883 0 0 1 5.8577-1.5696zm13.28 7.6671a4.2883 4.2883 0 0 1 1.5696 5.8577 4.2883 4.2883 0 0 1-5.8577 1.5696 4.2883 4.2883 0 0 1-1.5701-5.858 4.2883 4.2883 0 0 1 5.8582-1.5693zm-19.169 2.5332a21.117 21.117 0 0 1 7.7291 28.846 21.117 21.117 0 0 1-28.846 7.7291 21.117 21.117 0 0 1-7.7291-28.846 21.117 21.117 0 0 1 28.846-7.7291zm-4.0931 7.0895a12.93 12.93 0 0 0-17.663 4.7328 12.93 12.93 0 0 0 4.7328 17.663 12.93 12.93 0 0 0 17.663-4.7328 12.93 12.93 0 0 0-4.7328-17.663zm-36.325 22.216 4.7316 2.7318c1.121 0.6472 1.5024 2.0705 0.85516 3.1915l-0.3924 0.67966c-0.6472 1.121-2.0705 1.5024-3.1915 0.85516l-4.7316-2.7318c-1.121-0.6472-1.5024-2.0705-0.85516-3.1915l0.3924-0.67967c0.64721-1.121 2.0705-1.5024 3.1915-0.85516zm10.172 5.8728 4.7316 2.7318c1.121 0.6472 1.5024 2.0705 0.85516 3.1915l-0.3924 0.67967c-0.6472 1.121-2.0705 1.5024-3.1915 0.85516l-4.7316-2.7318c-1.121-0.6472-1.5024-2.0705-0.85516-3.1915l0.3924-0.67966c0.64721-1.121 2.0705-1.5024 3.1915-0.85516zm10.172 5.8728 4.7316 2.7318c1.121 0.6472 1.5024 2.0705 0.85516 3.1915l-0.3924 0.67967c-0.6472 1.121-2.0705 1.5024-3.1915 0.85516l-4.7316-2.7318c-1.121-0.6472-1.5024-2.0705-0.85516-3.1915l0.3924-0.67967c0.64721-1.121 2.0705-1.5024 3.1915-0.85516zm10.172 5.8728 4.7316 2.7318c1.121 0.6472 1.5024 2.0705 0.85516 3.1915l-0.3924 0.67966c-0.6472 1.121-2.0705 1.5024-3.1915 0.85516l-4.7316-2.7318c-1.121-0.64721-1.5024-2.0705-0.85516-3.1915l0.3924-0.67967c0.64721-1.121 2.0705-1.5024 3.1915-0.85516zm-30.355-6.771 4.7316 2.7318c1.121 0.6472 1.5024 2.0705 0.85516 3.1915l-0.39271 0.68019c-0.6472 1.121-2.0705 1.5024-3.1915 0.85516l-4.7316-2.7318c-1.121-0.6472-1.5024-2.0705-0.85516-3.1915l0.39271-0.68019c0.6472-1.121 2.0705-1.5024 3.1915-0.85515zm20.879 12.055 4.7316 2.7318c1.121 0.64721 1.5024 2.0705 0.85516 3.1915l-0.39271 0.6802c-0.6472 1.121-2.0705 1.5024-3.1915 0.85516l-4.7316-2.7318c-1.121-0.6472-1.5024-2.0705-0.85516-3.1915l0.39271-0.68019c0.6472-1.121 2.0705-1.5024 3.1915-0.85515zm-30.7-6.1724 4.7316 2.7318c1.121 0.64721 1.5024 2.0705 0.85516 3.1915l-0.39242 0.67969c-0.6472 1.121-2.0708 1.5029-3.1918 0.85568l-4.7316-2.7318c-1.121-0.6472-1.5021-2.071-0.85486-3.192l0.39242-0.67968c0.6472-1.121 2.0705-1.5024 3.1915-0.85516zm10.172 5.8728 4.7316 2.7318c1.121 0.6472 1.5024 2.0705 0.85516 3.1915l-0.39242 0.67968c-0.6472 1.121-2.0708 1.5029-3.1918 0.85568l-4.7316-2.7318c-1.121-0.6472-1.5021-2.071-0.85486-3.192l0.39242-0.67969c0.6472-1.121 2.0705-1.5024 3.1915-0.85516zm10.172 5.8728 4.7316 2.7318c1.121 0.64721 1.5024 2.0705 0.85516 3.1915l-0.39242 0.67968c-0.6472 1.121-2.0708 1.5029-3.1918 0.85568l-4.7316-2.7318c-1.121-0.64721-1.5021-2.071-0.85486-3.192l0.39242-0.67968c0.6472-1.121 2.0705-1.5024 3.1915-0.85516zm10.172 5.8728 4.7316 2.7318c1.121 0.64721 1.5024 2.0705 0.85516 3.1915l-0.39242 0.67969c-0.6472 1.121-2.0708 1.5029-3.1918 0.85568l-4.7316-2.7318c-1.121-0.6472-1.5021-2.071-0.85486-3.192l0.39242-0.67968c0.6472-1.121 2.0705-1.5024 3.1915-0.85516z" fill="#673ab7" stroke-width="6.065"/></svg>
