<svg width="512" height="512" version="1.1" viewBox="0 0 135.47 135.47" xmlns="http://www.w3.org/2000/svg"><title>Universal Remote</title><path d="m82.287 14.575c-4.4783-2.5855-10.442-0.54979-13.4 4.5751l-42.651 73.873c-2.9589 5.1249-1.7402 11.307 2.7381 13.893l24.206 13.976c4.4783 2.5855 10.442 0.54981 13.4-4.5751l42.651-73.873c2.9589-5.1249 1.7402-11.307-2.738-13.893l-16.138-9.3171zm-0.98395 4.4554a3.5237 3.5237 0 0 1 1.2901 4.8135 3.5237 3.5237 0 0 1-4.8137 1.2895 3.5237 3.5237 0 0 1-1.2897-4.8132 3.5237 3.5237 0 0 1 4.8133-1.2897zm21.824 12.6a3.5237 3.5237 0 0 1 1.2897 4.8132 3.5237 3.5237 0 0 1-4.8132 1.2897 3.5237 3.5237 0 0 1-1.2901-4.8135 3.5237 3.5237 0 0 1 4.8137-1.2895zm-26.78-4.0157a3.5237 3.5237 0 0 1 1.2899 4.8139 3.5237 3.5237 0 0 1-4.8137 1.2895 3.5237 3.5237 0 0 1-1.2897-4.8132 3.5237 3.5237 0 0 1 4.8135-1.2901zm10.912 6.3a3.5237 3.5237 0 0 1 1.2895 4.8137 3.5237 3.5237 0 0 1-4.8133 1.2897 3.5237 3.5237 0 0 1-1.2897-4.8132 3.5237 3.5237 0 0 1 4.8135-1.2901zm10.912 6.3a3.5237 3.5237 0 0 1 1.2895 4.8137 3.5237 3.5237 0 0 1-4.8132 1.2897 3.5237 3.5237 0 0 1-1.2901-4.8135 3.5237 3.5237 0 0 1 4.8139-1.2899zm-25.933-5.4823a3.5237 3.5237 0 0 1 1.2899 4.8139 3.5237 3.5237 0 0 1-4.8137 1.2895 3.5237 3.5237 0 0 1-1.2897-4.8132 3.5237 3.5237 0 0 1 4.8135-1.2901zm10.912 6.3a3.5237 3.5237 0 0 1 1.2895 4.8137 3.5237 3.5237 0 0 1-4.8133 1.2897 3.5237 3.5237 0 0 1-1.2897-4.8132 3.5237 3.5237 0 0 1 4.8135-1.2901zm10.912 6.3a3.5237 3.5237 0 0 1 1.2895 4.8137 3.5237 3.5237 0 0 1-4.8132 1.2897 3.5237 3.5237 0 0 1-1.2901-4.8135 3.5237 3.5237 0 0 1 4.8139-1.2899zm-26.011-5.3483a3.5237 3.5237 0 0 1 1.2901 4.8135 3.5237 3.5237 0 0 1-4.8137 1.2895 3.5237 3.5237 0 0 1-1.2897-4.8133 3.5237 3.5237 0 0 1 4.8132-1.2897zm10.912 6.3a3.5237 3.5237 0 0 1 1.2897 4.8132 3.5237 3.5237 0 0 1-4.8133 1.2897 3.5237 3.5237 0 0 1-1.2897-4.8133 3.5237 3.5237 0 0 1 4.8132-1.2897zm10.912 6.3a3.5237 3.5237 0 0 1 1.2897 4.8132 3.5237 3.5237 0 0 1-4.8132 1.2897 3.5237 3.5237 0 0 1-1.2901-4.8135 3.5237 3.5237 0 0 1 4.8137-1.2895zm-15.751 2.0816a17.352 17.352 0 0 1 6.351 23.702 17.352 17.352 0 0 1-23.702 6.351 17.352 17.352 0 0 1-6.351-23.702 17.352 17.352 0 0 1 23.702-6.351zm-3.3633 5.8254a10.624 10.624 0 0 0-14.514 3.8889 10.624 10.624 0 0 0 3.8889 14.514 10.624 10.624 0 0 0 14.514-3.8889 10.624 10.624 0 0 0-3.8889-14.514zm-29.848 18.255 3.8879 2.2447c0.92112 0.53181 1.2345 1.7013 0.70268 2.6225l-0.32244 0.55848c-0.53181 0.92112-1.7013 1.2345-2.6225 0.70268l-3.8879-2.2447c-0.92112-0.53181-1.2345-1.7013-0.70268-2.6225l0.32244-0.55848c0.53181-0.92112 1.7013-1.2345 2.6225-0.70269zm8.3584 4.8257 3.8879 2.2447c0.92112 0.53181 1.2345 1.7013 0.70268 2.6225l-0.32244 0.55848c-0.53181 0.92112-1.7013 1.2345-2.6225 0.70268l-3.8879-2.2447c-0.92112-0.53181-1.2345-1.7013-0.70268-2.6225l0.32244-0.55848c0.53181-0.92112 1.7013-1.2345 2.6225-0.70269zm8.3584 4.8257 3.8879 2.2447c0.92112 0.53181 1.2345 1.7013 0.70268 2.6225l-0.32244 0.55848c-0.53181 0.92112-1.7013 1.2345-2.6225 0.70268l-3.8879-2.2447c-0.92112-0.53181-1.2345-1.7013-0.70268-2.6225l0.32244-0.55848c0.53181-0.92112 1.7013-1.2345 2.6225-0.70269zm8.3584 4.8257 3.8879 2.2447c0.92112 0.5318 1.2345 1.7013 0.70268 2.6225l-0.32244 0.55848c-0.5318 0.92112-1.7013 1.2345-2.6225 0.70268l-3.8879-2.2447c-0.92112-0.53181-1.2345-1.7013-0.70268-2.6225l0.32244-0.55848c0.53181-0.92112 1.7013-1.2345 2.6225-0.70269zm-24.942-5.5638 3.8879 2.2447c0.92112 0.53181 1.2345 1.7013 0.70269 2.6224l-0.32269 0.55892c-0.53181 0.92112-1.7013 1.2345-2.6225 0.70268l-3.8879-2.2447c-0.92112-0.53181-1.2345-1.7013-0.70268-2.6225l0.32269-0.55892c0.5318-0.92111 1.7013-1.2345 2.6224-0.70268zm17.157 9.9054 3.8879 2.2447c0.92112 0.53181 1.2345 1.7013 0.70269 2.6224l-0.32269 0.55891c-0.53181 0.92113-1.7013 1.2345-2.6225 0.70269l-3.8879-2.2447c-0.92112-0.53181-1.2345-1.7013-0.70268-2.6225l0.32269-0.55891c0.53181-0.92111 1.7013-1.2345 2.6224-0.70268zm-25.226-5.0719 3.8879 2.2447c0.92112 0.53181 1.2345 1.7013 0.70268 2.6225l-0.32244 0.55849c-0.53181 0.92111-1.7016 1.2349-2.6227 0.70311l-3.8879-2.2447c-0.92112-0.53181-1.2342-1.7018-0.70244-2.6229l0.32245-0.55849c0.53181-0.92112 1.7013-1.2345 2.6225-0.70269zm8.3584 4.8257 3.8879 2.2447c0.92112 0.53181 1.2345 1.7013 0.70268 2.6224l-0.32245 0.55849c-0.5318 0.92112-1.7016 1.2349-2.6227 0.70311l-3.8879-2.2447c-0.92112-0.5318-1.2342-1.7018-0.70243-2.6229l0.32244-0.5585c0.53181-0.92112 1.7013-1.2345 2.6225-0.70268zm8.3584 4.8257 3.8879 2.2447c0.92112 0.53181 1.2345 1.7013 0.70268 2.6224l-0.32245 0.55849c-0.5318 0.92112-1.7016 1.2349-2.6227 0.70311l-3.8879-2.2447c-0.92112-0.53181-1.2342-1.7018-0.70244-2.6229l0.32244-0.55849c0.53181-0.92113 1.7013-1.2345 2.6225-0.70269zm8.3584 4.8257 3.8879 2.2447c0.92112 0.53181 1.2345 1.7013 0.70268 2.6225l-0.32244 0.55849c-0.53181 0.92111-1.7016 1.2349-2.6227 0.70311l-3.8879-2.2447c-0.92112-0.53181-1.2342-1.7018-0.70244-2.6229l0.32245-0.55849c0.53181-0.92112 1.7013-1.2345 2.6225-0.70269z" fill="#673ab7" stroke-width="4.9836"/></svg>
